<svg width="256" height="256" xmlns="http://www.w3.org/2000/svg">
  <g fill="none" fill-rule="evenodd">
    <path fill="#F00000" d="M0 0h256v256H0z"/>
    <path d="M57.5 24c.5 3 .5 6.3 0 10.4-2-.7-3.4-2.3-5.1-5.2-1 3.8-.7 8 0 12.9A26 26 0 0047 52.3C42.3 63.3 36.4 70 37 75.7c0 5.1 5.2 7.8 7.7 7.9 2.6-.1 5.2-2.8 7.7-7.9a52.6 52.6 0 0015.4-10.4c5.2.2 7.6 15.8 5.1 20.8a67.3 67.3 0 00-12.8 39H49.8c-10.2-2.7-19.3-4-23 5-2.6 7.8-8 18-7.8 23.4.1 2.7 1.7 7 2.6 10.4 0 6.9 2.4 13 5.1 13 2.4.1 5-5.4 5.1-7.8 0-5.3-3.4-7-5-10.4.9-12.5 1.8-22 12.7-23.3 14.8 5 25 6.8 37.2 5.4 6.8-2.4 10.4-6.6 15-11 1.3-1 2.4-.8 3.2 0 1.1.9 1.5 2.8.3 3.8-4.3 4.1-8.3 8-14 10.8a56.9 56.9 0 0038.2 19.2c-.5-6.2 1.1-11.4 2.5-17.2.2-1.1 1.4-2 2.6-2 1.5 0 2.8 1.7 2.4 3.2-1.4 6.2-3.3 10.4-2.3 17 2.6 10.6 10.6 20.4 17.7 30.3v5.2c-7.3 2.8-12.8 8-18 13-8 .2-17 2-17.2 7.5.5 2 1.4 2 3.2 2.9a7.6 7.6 0 00-2.1 7.3c2.5 2.7 10.2 3 13.5.5 1.5-1 2.9-5 4.3-7.5l3.4-.3a93 93 0 0120.6-18.1c5.1.5 9.2-1.9 10.3-5.3 1-3.3-1.8-6.9-2.6-10.3-.8-5.7-.9-12.6 0-15.6 12.8-13 22-21.3 22-42l4.7 3.2c0 39 22 46.7 60.6 36.3-18-5.2-28.2-7.8-36-18.2 5.2 0 10.3 2.6 18 0-25.7-7.7-23-36.3-54-33.7-10.2-13-35.9-15.5-53.8-18.1 0-18.2-2.6-26-12.9-36.4 5.2 0 8.6 1.8 12.9 2.7-7.7-10.4-18-15.6-25.7-20.7h10.4C91 37 83.2 31.8 65.2 34.5c-2.5-5.3-5.1-8-7.7-10.5zm-2.1 23.2c.6 2 0 3.7-.8 4.4-1.1.8-2.3.8-3 0-.7-1 2.3-3.8 3.8-4.4zM39.2 138c-2 12-4.8 17-4.8 22 .2 2.6 5 7.3 6.8 9.8.7 5 2.8 10.2 5.9 10.3 2.7.2 3-7.6 3-10.6-.2-2.3-3.5-4.8-5.4-7.2-.4-7.9.2-16.6 4-21.6l-9.5-2.7z" fill="#FFF" fill-rule="nonzero"/>
  </g>
</svg>
