<svg width="283" height="161" xmlns="http://www.w3.org/2000/svg">
  <g fill="none" fill-rule="evenodd">
    <g transform="translate(29 29)">
      <ellipse fill="#F00000" cx="64.5" cy="65" rx="64.5" ry="65"/>
      <path d="M37 19a16 16 0 010 4.7c-.9-.3-1.5-1-2.2-2.4-.5 1.8-.4 3.6 0 5.8-1 1.3-2.3 3.6-2.4 4.6-2 5-4.7 8-4.4 10.6 0 2.3 2.3 3.4 3.4 3.5 1.1 0 2.3-1.2 3.4-3.5 2.3-1.1 4.5-2.5 6.8-4.7 2.3 0 3.3 7 2.3 9.3a30.6 30.6 0 00-5.7 17.5h-4.6c-4.5-1.1-8.5-1.8-10.2 2.4-1 3.4-3.5 8-3.4 10.5 0 1.1.8 3 1.1 4.6 0 3.1 1.1 5.9 2.3 5.9 1 0 2.2-2.5 2.3-3.6 0-2.3-1.5-3-2.3-4.6.4-5.6.8-10 5.7-10.5 6.5 2.2 11 3 16.4 2.4 3-1 4.6-3 6.7-4.9.5-.5 1-.4 1.4 0 .5.4.7 1.2.1 1.7-1.9 1.8-3.7 3.6-6.2 4.8a25 25 0 0017 8.7c-.3-2.8.4-5.1 1-7.7.1-.5.6-1 1.2-1 .7 0 1.2.8 1 1.5-.6 2.8-1.4 4.7-1 7.7 1.2 4.7 4.7 9.1 7.8 13.6v2.3a23.9 23.9 0 00-8 5.9c-3.5 0-7.4.9-7.5 3.3.2.9.6 1 1.4 1.3a3.5 3.5 0 00-1 3.3c1.2 1.2 4.6 1.4 6 .2.7-.5 1.3-2.2 2-3.3l1.5-.2c3.4-3.8 6.8-6.9 9-8.1 2.3.2 4.1-.9 4.6-2.4.4-1.5-.8-3-1.1-4.6a22 22 0 010-7C87 80.7 91 77 91 67.6l2 1.5c0 17.5 9.9 21 26.9 16.3-8-2.3-12.5-3.5-16-8.1 2.4 0 4.6 1.1 8 0-11.3-3.5-10.2-16.4-23.8-15.2-4.6-5.8-16-7-23.9-8.2 0-8.1-1.1-11.6-5.7-16.3 2.3 0 3.8.8 5.7 1.2-3.4-4.7-8-7-11.3-9.3h4.6c-5.8-4.7-9.2-7-17.1-5.8-1.2-2.4-2.3-3.5-3.5-4.7zm-1 10.7c.1 1 0 2-.3 2.4-.4.4-.8.4-1 0-.2-.5.7-2 1.2-2.4zM28.6 70c-.9 5.4-2 7.7-2 9.8 0 1.2 2.1 3.3 2.9 4.4.3 2.3 1.2 4.6 2.5 4.6 1.1.1 1.2-3.3 1.2-4.7 0-1-1.4-2.1-2.3-3.2-.1-3.5.1-7.4 1.8-9.7l-4-1.2z" fill="#FFF" fill-rule="nonzero"/>
    </g>
    <path d="M174.2 137.7c0 1.2-1 2.4-3.2 3.6a11.7 11.7 0 01-5.3 1.7 9 9 0 01-5-1.8c-1.8-1.2-2.7-2.6-2.7-4.3 0-1.4.7-2.6 2.2-3.7 1.4-1.1 3-1.7 4.5-1.7 2 0 4 .6 6 1.7 2.3 1.4 3.5 2.9 3.5 4.5zm58 4a12 12 0 01-5.5 2.3c-1 0-2.4-.5-4.3-1.5a266.7 266.7 0 01.2-11.7c0-19-1.5-28.5-4.7-28.5-2.3 0-4.2 3-5.6 8.7-1 4.2-1.6 8-1.6 11.6v9.9c0 .5.2 1.2.5 2.2.3 1 .5 1.6.5 2.1 0 1.2-.6 2.2-1.9 3a6 6 0 01-3.5 1.4c-1.2 0-2.4-.6-3.6-1.8-1.2-1.2-1.8-2.4-1.8-3.5V116c0-8-.9-12-2.7-12a36.4 36.4 0 00-9 29c.4 2.1.5 3.7.5 4.8a4.6 4.6 0 01-4.8 5 5 5 0 01-3.9-1.8 41 41 0 01-2-10.5v-23.3c0-1.7.5-4 1.4-6.8 1-3.4 2.2-5.1 3.4-5.1 1.4 0 2.7.5 3.8 1.6a4.5 4.5 0 011.5 3.8c2-3.4 4.7-5.1 8-5.1 4 0 7.3 2.7 9.9 8.1a26 26 0 013.6-6.6c1.8-2 4-3.1 6.6-3.1 2.6 0 5.3 1.4 8 4.2 4.7 4.7 7 12.9 7 24.4v19.2zm42.8-9.1c0 3.5-2.4 6.3-7.2 8.3a30.4 30.4 0 01-11.9 2.4c-10.9 0-16.4-6.3-16.4-18.7 0-5.2 1.3-10.9 3.8-17.1 3-7.7 6.7-11.6 11-11.6 4 0 8.2 1.8 12.7 5.3 4.5 3.4 6.7 7 6.7 10.9 0 4.7-2 8.4-6.3 11.2a23 23 0 01-13.2 3.7c-1 0-2.6-.6-4.8-1.8.3 6.8 2.3 10.1 6 10.1a18 18 0 009.2-2.6c3-1.8 5-2.7 5.8-2.7 3 0 4.6.9 4.6 2.6zm-11.6-20.2c0-1.8-.5-3.5-1.5-5.1-1-1.6-2.4-2.4-4.1-2.4a6 6 0 00-5.5 3.1 12 12 0 00-1.6 6.3c0 1.4.5 2.5 1.4 3.3a5 5 0 003.5 1.3c5.2 0 7.8-2.2 7.8-6.5z" fill="#540000" fill-rule="nonzero"/>
    <path d="M158.5 29.5v130M94 2L2 94M281 67l-92 92M224 94.5H94" stroke="#0091FF" stroke-width="2" stroke-linecap="square"/>
  </g>
</svg>
